<svg xmlns="http://www.w3.org/2000/svg" viewBox="0 0 80.98 80.97"><defs><style>.cls-1{fill:#d6832b;}</style></defs><g id="Layer_2" data-name="Layer 2"><g id="Layer_1-2" data-name="Layer 1"><path class="cls-1" d="M1.77,29.65a1.76,1.76,0,0,0,1.76-1.76V11.2a7.68,7.68,0,0,1,7.68-7.67H29A1.77,1.77,0,1,0,29,0H11.21A11.22,11.22,0,0,0,0,11.2V27.89A1.76,1.76,0,0,0,1.77,29.65Z"/><path class="cls-1" d="M29,77.44H11.21a7.68,7.68,0,0,1-7.68-7.67V50.84a1.77,1.77,0,0,0-3.53,0V69.77A11.22,11.22,0,0,0,11.21,81H29a1.77,1.77,0,1,0,0-3.53Z"/><path class="cls-1" d="M69.77,0H52a1.77,1.77,0,0,0,0,3.53H69.77a7.69,7.69,0,0,1,7.68,7.67V27.89a1.77,1.77,0,0,0,3.53,0V11.2A11.22,11.22,0,0,0,69.77,0Z"/><path class="cls-1" d="M79.21,49.08a1.76,1.76,0,0,0-1.76,1.76V69.77a7.69,7.69,0,0,1-7.68,7.67H52A1.77,1.77,0,0,0,52,81H69.77A11.22,11.22,0,0,0,81,69.77V50.84A1.76,1.76,0,0,0,79.21,49.08Z"/><path class="cls-1" d="M16.61,21.9V59.07a5.3,5.3,0,0,0,5.3,5.3H59.07a5.31,5.31,0,0,0,5.3-5.3V21.9a5.3,5.3,0,0,0-5.3-5.29H21.91A5.29,5.29,0,0,0,16.61,21.9Zm44.23,0V59.07a1.77,1.77,0,0,1-1.77,1.77H21.91a1.77,1.77,0,0,1-1.77-1.77V21.9a1.76,1.76,0,0,1,1.77-1.76H59.07A1.76,1.76,0,0,1,60.84,21.9Z"/></g></g></svg>