<svg xmlns="http://www.w3.org/2000/svg" viewBox="0 0 58.23 81.37"><defs><style>.cls-1{fill:#d6832b;}</style></defs><g id="Layer_2" data-name="Layer 2"><g id="Layer_1-2" data-name="Layer 1"><path class="cls-1" d="M58.14,75.43,53.55,51.82a5,5,0,0,0-4.89-4h-4.1c5.24-8.93,7.9-17.13,7.9-24.44a23.35,23.35,0,0,0-46.69,0c0,7.31,2.66,15.51,7.9,24.44H9.57a5,5,0,0,0-4.89,4L.09,75.43A5,5,0,0,0,5,81.37H53.24a5,5,0,0,0,4.9-5.94Zm-29-71.9A19.84,19.84,0,0,1,48.93,23.34c0,16.32-15.27,34.39-19.82,39.41C24.57,57.73,9.3,39.66,9.3,23.34A19.84,19.84,0,0,1,29.11,3.53ZM54.36,77.31a1.44,1.44,0,0,1-1.12.53H5a1.48,1.48,0,0,1-1.13-.53,1.46,1.46,0,0,1-.3-1.2L8.14,52.49a1.47,1.47,0,0,1,1.43-1.18h6.28c.33.51.67,1,1,1.53a105,105,0,0,0,11,13.74l1.25,1.28,1.26-1.28a106,106,0,0,0,11-13.74c.34-.51.67-1,1-1.53h6.29a1.47,1.47,0,0,1,1.43,1.18l4.58,23.62A1.43,1.43,0,0,1,54.36,77.31Z"/><path class="cls-1" d="M40.4,24.8A11.29,11.29,0,1,0,29.11,36.09,11.29,11.29,0,0,0,40.4,24.8Zm-19,0a7.76,7.76,0,1,1,7.75,7.75A7.76,7.76,0,0,1,21.36,24.8Z"/></g></g></svg>