<svg xmlns="http://www.w3.org/2000/svg" viewBox="0 0 80.16 79.93"><defs><style>.cls-1{fill:#d6832b;}</style></defs><g id="Layer_2" data-name="Layer 2"><g id="Layer_1-2" data-name="Layer 1"><path class="cls-1" d="M74.86,4.79H69.7V1.54a1.54,1.54,0,0,0-3.08,0V4.79H14.13V1.54a1.54,1.54,0,1,0-3.07,0V4.79H5.3A5.3,5.3,0,0,0,0,10.08V74.63a5.31,5.31,0,0,0,5.3,5.3H74.86a5.31,5.31,0,0,0,5.3-5.3V10.08A5.3,5.3,0,0,0,74.86,4.79ZM5.3,8.32h5.76V11a1.54,1.54,0,1,0,3.07,0V8.32H66.62V11a1.54,1.54,0,0,0,3.08,0V8.32h5.16a1.76,1.76,0,0,1,1.76,1.76V24.84H3.53V10.08A1.76,1.76,0,0,1,5.3,8.32ZM74.86,76.4H5.3a1.77,1.77,0,0,1-1.77-1.77V28.38H76.62V74.63A1.77,1.77,0,0,1,74.86,76.4Z"/><path class="cls-1" d="M12.93,47.42a2.53,2.53,0,1,0,5.06,0A2.53,2.53,0,0,0,12.93,47.42Z"/><path class="cls-1" d="M12.93,57.55a2.53,2.53,0,1,0,5.06,0A2.53,2.53,0,1,0,12.93,57.55Z"/><path class="cls-1" d="M12.93,67.68a2.53,2.53,0,0,0,5.06,0A2.53,2.53,0,1,0,12.93,67.68Z"/><path class="cls-1" d="M53.44,37.3a2.53,2.53,0,0,0,5.06,0A2.53,2.53,0,1,0,53.44,37.3Z"/><path class="cls-1" d="M53.44,47.42a2.53,2.53,0,1,0,5.06,0A2.53,2.53,0,0,0,53.44,47.42Z"/><path class="cls-1" d="M53.44,57.55a2.53,2.53,0,1,0,5.06,0A2.53,2.53,0,1,0,53.44,57.55Z"/><path class="cls-1" d="M53.44,67.68a2.53,2.53,0,0,0,5.06,0A2.53,2.53,0,1,0,53.44,67.68Z"/><path class="cls-1" d="M63.57,37.3a2.53,2.53,0,0,0,5.06,0A2.53,2.53,0,1,0,63.57,37.3Z"/><path class="cls-1" d="M63.57,47.42a2.53,2.53,0,1,0,5.06,0A2.53,2.53,0,0,0,63.57,47.42Z"/><path class="cls-1" d="M63.57,57.55a2.53,2.53,0,1,0,5.06,0A2.53,2.53,0,1,0,63.57,57.55Z"/><path class="cls-1" d="M33.18,37.3a2.54,2.54,0,0,0,5.07,0A2.54,2.54,0,0,0,33.18,37.3Z"/><path class="cls-1" d="M33.18,47.42a2.54,2.54,0,1,0,5.07,0A2.54,2.54,0,0,0,33.18,47.42Z"/><path class="cls-1" d="M33.18,57.55a2.54,2.54,0,0,0,5.07,0A2.54,2.54,0,0,0,33.18,57.55Z"/><path class="cls-1" d="M33.18,67.68a2.54,2.54,0,0,0,5.07,0A2.54,2.54,0,1,0,33.18,67.68Z"/><path class="cls-1" d="M23.06,37.3a2.53,2.53,0,0,0,5.06,0A2.53,2.53,0,1,0,23.06,37.3Z"/><path class="cls-1" d="M23.06,47.42a2.53,2.53,0,1,0,5.06,0A2.53,2.53,0,0,0,23.06,47.42Z"/><path class="cls-1" d="M23.06,57.55a2.53,2.53,0,1,0,5.06,0A2.53,2.53,0,1,0,23.06,57.55Z"/><path class="cls-1" d="M23.06,67.68a2.53,2.53,0,0,0,5.06,0A2.53,2.53,0,1,0,23.06,67.68Z"/><path class="cls-1" d="M43.31,37.3a2.53,2.53,0,0,0,5.06,0A2.53,2.53,0,1,0,43.31,37.3Z"/><path class="cls-1" d="M43.31,47.42a2.53,2.53,0,1,0,5.06,0A2.53,2.53,0,0,0,43.31,47.42Z"/><path class="cls-1" d="M43.31,57.55a2.53,2.53,0,1,0,5.06,0A2.53,2.53,0,1,0,43.31,57.55Z"/><path class="cls-1" d="M43.31,67.68a2.53,2.53,0,0,0,5.06,0A2.53,2.53,0,1,0,43.31,67.68Z"/></g></g></svg>