<svg xmlns="http://www.w3.org/2000/svg" viewBox="0 0 63.62 90.73"><defs><style>.cls-1{fill:#d6832b;}</style></defs><g id="Layer_2" data-name="Layer 2"><g id="Layer_1-2" data-name="Layer 1"><path class="cls-1" d="M31,40.3A14.93,14.93,0,1,0,46,55.24H31Z"/><path class="cls-1" d="M33.85,37.51V52.42h14.9A14.93,14.93,0,0,0,33.85,37.51ZM36,50.22V40A12.7,12.7,0,0,1,46.31,50.22Z"/><path class="cls-1" d="M34.48,20.06a1.76,1.76,0,0,0-1.77-1.76H11.25a1.77,1.77,0,0,0,0,3.53H32.71A1.77,1.77,0,0,0,34.48,20.06Z"/><path class="cls-1" d="M11.25,13.92H32.71a1.77,1.77,0,1,0,0-3.53H11.25a1.77,1.77,0,0,0,0,3.53Z"/><path class="cls-1" d="M46.29,0H5.19A5.2,5.2,0,0,0,0,5.19V85.55a5.19,5.19,0,0,0,5.19,5.18H58.44a5.18,5.18,0,0,0,5.18-5.18V17.34Zm.4,5.4L58.78,17.49H48.35a1.65,1.65,0,0,1-1.66-1.65ZM58.44,87.2H5.19a1.65,1.65,0,0,1-1.66-1.65V5.19A1.66,1.66,0,0,1,5.19,3.53h38V15.84A5.19,5.19,0,0,0,48.35,21H60.09V85.55A1.65,1.65,0,0,1,58.44,87.2Z"/></g></g></svg>