<svg xmlns="http://www.w3.org/2000/svg" viewBox="0 0 71.7 87.59"><defs><style>.cls-1{fill:#d6832b;}</style></defs><g id="Layer_2" data-name="Layer 2"><g id="Layer_1-2" data-name="Layer 1"><path class="cls-1" d="M44.49,34H43.38V30.68a7.73,7.73,0,0,0-15.46,0V34H26.8a2.21,2.21,0,0,0-2.19,2.22v11a2.21,2.21,0,0,0,2.19,2.21H44.49a2.2,2.2,0,0,0,2.2-2.21v-11A2.22,2.22,0,0,0,44.49,34ZM30.13,30.68a5.52,5.52,0,0,1,11,0V34h-11Z"/><path class="cls-1" d="M68.88,12.51l-.25-.87L35.59,0,35,.2C34.78.28,12.74,7.89,3,11.35l-1,.33-.19,1C-1.45,29-.32,44.58,5.11,57.74c5.81,14.07,16.22,24.31,30.1,29.59l.67.26.66-.29C74.57,70.81,74.76,32.53,68.88,12.51ZM35.8,83.77c-24.94-9.89-36.9-37-30.68-69.43,9.18-3.25,27-9.41,30.46-10.6L65.74,14.37C71,33.38,70.37,68.34,35.8,83.77Z"/></g></g></svg>