<svg xmlns="http://www.w3.org/2000/svg" viewBox="0 0 68.85 92.79"><defs><style>.cls-1{fill:#d6832b;}</style></defs><g id="Layer_2" data-name="Layer 2"><g id="Layer_1-2" data-name="Layer 1"><path class="cls-1" d="M50.89,0H18a6,6,0,0,0-6,6,6,6,0,0,0-6,6H6a6,6,0,0,0-6,6v68.8a6,6,0,0,0,6,6H50.9a6,6,0,0,0,6-6,6,6,0,0,0,6-6,6,6,0,0,0,6-6V21Zm0,4.49L65,21H53.87a3,3,0,0,1-3-3Zm0,85.31H6a3,3,0,0,1-3-3V18a3,3,0,0,1,3-3V80.79a6,6,0,0,0,6,6l41.91,0A3,3,0,0,1,50.89,89.8Zm9-9a3,3,0,0,1-3,3H12a3,3,0,0,1-3-3V12a3,3,0,0,1,3-3V74.81a6,6,0,0,0,6,6H59.87Zm6-6a3,3,0,0,1-3,3H18a3,3,0,0,1-3-3V6a3,3,0,0,1,3-3H47.89v15a6,6,0,0,0,6,6h12Z"/><polygon class="cls-1" points="23.56 18.01 23.56 18.01 23.56 18.01 23.56 18.01"/><path class="cls-1" d="M24.32,22.62a.36.36,0,0,0,.29.17l.82,0a.44.44,0,0,1,.24.11l2,2a.37.37,0,0,0,.52,0l1-.92a.32.32,0,0,0,.12-.26.33.33,0,0,0-.11-.26l-2-2a.32.32,0,0,1-.11-.24h0l0-.82a.39.39,0,0,0-.17-.29h0L23.56,18a.38.38,0,0,0-.46,0l-.43.42-.42.43a.38.38,0,0,0-.05.46Z"/><path class="cls-1" d="M23.1,34.07a.75.75,0,0,0,1,0L30.22,28a.33.33,0,0,1,.25-.1.35.35,0,0,1,.26.1l1.2,1.2h0a.37.37,0,0,1,0,.52.36.36,0,0,0,0,.51l2.88,2.89A3.89,3.89,0,0,0,38,34.25h.14a.37.37,0,0,0,.33-.33v-.14h0a3.89,3.89,0,0,0-1.13-3.15l-2.89-2.89a.36.36,0,0,0-.51,0,.37.37,0,0,1-.52,0l-1.2-1.2h0a.37.37,0,0,1,0-.52l.56-.56a.39.39,0,0,1,.4-.08,3.85,3.85,0,0,0,5.19-4.49.36.36,0,0,0-.26-.26.37.37,0,0,0-.36.09l-2.11,2.11a.36.36,0,0,1-.51,0l-1.5-1.5a.36.36,0,0,1-.11-.25.36.36,0,0,1,.11-.26l2.11-2.11a.36.36,0,0,0-.18-.61A3.85,3.85,0,0,0,31,20.51a3.86,3.86,0,0,0,.06,2.76.39.39,0,0,1-.08.4l-8.61,8.61a.74.74,0,0,0-.22.52.71.71,0,0,0,.22.52Z"/><path class="cls-1" d="M22.29,45.66a1.76,1.76,0,0,0,1.76,1.77H49.34a1.77,1.77,0,1,0,0-3.53H24.05A1.76,1.76,0,0,0,22.29,45.66Z"/><path class="cls-1" d="M22.29,53.82a1.76,1.76,0,0,0,1.76,1.76h35.2a1.77,1.77,0,1,0,0-3.53H24.05A1.76,1.76,0,0,0,22.29,53.82Z"/><path class="cls-1" d="M59.25,59.28H24.05a1.77,1.77,0,0,0,0,3.53h35.2a1.77,1.77,0,1,0,0-3.53Z"/></g></g></svg>